<svg width="200" height="70" viewBox="0 0 200 70" fill="none" xmlns="http://www.w3.org/2000/svg">
  <path d="M23.536 45.576C21.064 45.576 18.968 45.048 17.248 43.992C15.528 42.936 14.248 41.448 13.408 39.528C12.592 37.584 12.184 35.352 12.184 32.832C12.184 30.312 12.592 28.104 13.408 26.208C14.248 24.288 15.528 22.800 17.248 21.744C18.968 20.688 21.064 20.160 23.536 20.160C25.6 20.160 27.392 20.544 28.912 21.312C30.432 22.080 31.608 23.208 32.44 24.696C33.272 26.160 33.728 27.912 33.8 29.952H27.728C27.56 28.608 27.128 27.576 26.432 26.856C25.76 26.112 24.808 25.740 23.576 25.740C22.072 25.740 20.924 26.316 20.132 27.468C19.34 28.596 18.944 30.36 18.944 32.76C18.944 35.184 19.34 36.984 20.132 38.160C20.924 39.312 22.072 39.888 23.576 39.888C24.808 39.888 25.76 39.528 26.432 38.808C27.128 38.064 27.56 37.008 27.728 35.640H33.8C33.728 37.656 33.272 39.408 32.44 40.896C31.608 42.360 30.432 43.488 28.912 44.280C27.392 45.048 25.6 45.432 23.536 45.576Z" fill="white"/>
  <path d="M46.1126 21.888V27.612H45.6326C44.0726 27.612 42.8526 28.008 41.9726 28.800C41.0926 29.568 40.5726 30.888 40.4126 32.760V44.880H33.8966V21.888H40.2326V26.064C40.6286 24.648 41.3726 23.520 42.4646 22.680C43.5566 21.816 44.8566 21.384 46.3526 21.384L46.1126 21.888Z" fill="white"/>
  <path d="M47.4795 21.888H54.0355V44.880H47.4795V21.888ZM50.7575 19.308C49.5855 19.308 48.6535 18.972 47.9615 18.300C47.2695 17.628 46.9235 16.800 46.9235 15.816C46.9235 14.832 47.2695 14.004 47.9615 13.332C48.6535 12.660 49.5855 12.324 50.7575 12.324C51.9295 12.324 52.8615 12.660 53.5535 13.332C54.2455 14.004 54.5915 14.832 54.5915 15.816C54.5915 16.800 54.2455 17.628 53.5535 18.300C52.8615 18.972 51.9295 19.308 50.7575 19.308Z" fill="white"/>
  <path d="M71.9347 21.888V27.612H71.4547C69.8947 27.612 68.6747 28.008 67.7947 28.800C66.9147 29.568 66.3947 30.888 66.2347 32.760V44.880H59.7187V21.888H66.0547V26.064C66.4507 24.648 67.1947 23.520 68.2867 22.680C69.3787 21.816 70.6787 21.384 72.1747 21.384L71.9347 21.888Z" fill="white"/>
  <path d="M74.501 21.888H81.057V44.880H74.501V21.888ZM77.779 19.308C76.607 19.308 75.675 18.972 74.983 18.300C74.291 17.628 73.945 16.800 73.945 15.816C73.945 14.832 74.291 14.004 74.983 13.332C75.675 12.660 76.607 12.324 77.779 12.324C78.951 12.324 79.883 12.660 80.575 13.332C81.267 14.004 81.613 14.832 81.613 15.816C81.613 16.800 81.267 17.628 80.575 18.300C79.883 18.972 78.951 19.308 77.779 19.308Z" fill="white"/>
  <path d="M96.2249 44.880L90.3049 35.496V44.880H83.7489V12.288H90.3049V31.272L96.1849 21.888H103.553L95.9049 32.472L103.793 44.880H96.2249Z" fill="white"/>
  <path d="M105.444 21.888H112V44.880H105.444V21.888ZM108.722 19.308C107.55 19.308 106.618 18.972 105.926 18.300C105.234 17.628 104.888 16.800 104.888 15.816C104.888 14.832 105.234 14.004 105.926 13.332C106.618 12.660 107.55 12.324 108.722 12.324C109.894 12.324 110.826 12.660 111.518 13.332C112.21 14.004 112.556 14.832 112.556 15.816C112.556 16.800 112.21 17.628 111.518 18.300C110.826 18.972 109.894 19.308 108.722 19.308Z" fill="white"/>
  <path d="M122.224 44.856C120.28 44.856 118.512 44.448 116.92 43.632C115.352 42.816 114.104 41.664 113.176 40.176C112.272 38.688 111.8 36.972 111.76 35.028H118.28C118.368 36.204 118.776 37.128 119.504 37.8C120.256 38.448 121.216 38.772 122.384 38.772C123.552 38.772 124.464 38.508 125.12 37.98C125.776 37.428 126.104 36.696 126.104 35.784C126.104 35.016 125.848 34.392 125.336 33.912C124.848 33.432 124.24 33.048 123.512 32.76C122.808 32.472 121.816 32.148 120.536 31.788C118.76 31.284 117.304 30.78 116.168 30.276C115.032 29.772 114.056 29.004 113.24 27.972C112.424 26.94 112.016 25.572 112.016 23.868C112.016 22.236 112.4 20.82 113.168 19.62C113.96 18.396 115.072 17.448 116.504 16.776C117.936 16.104 119.608 15.768 121.52 15.768C124.4 15.768 126.688 16.44 128.384 17.784C130.104 19.128 131.056 21.012 131.24 23.436H124.48C124.416 22.404 124.04 21.588 123.352 20.988C122.664 20.364 121.76 20.052 120.64 20.052C119.688 20.052 118.936 20.304 118.384 20.808C117.832 21.288 117.556 21.984 117.556 22.896C117.556 23.904 118.032 24.684 118.984 25.236C119.936 25.788 121.4 26.364 123.376 26.964C125.152 27.516 126.584 28.044 127.672 28.548C128.784 29.052 129.736 29.808 130.528 30.816C131.32 31.824 131.728 33.156 131.752 34.812C131.752 36.492 131.344 37.944 130.528 39.168C129.736 40.392 128.6 41.352 127.12 42.048C125.664 44.064 124.064 44.856 122.224 44.856Z" fill="#FFC107"/>
  <path d="M147.607 39.84V44.856H145.183C142.639 44.856 140.671 44.328 139.279 43.272C137.887 42.192 137.191 40.32 137.191 37.656V27.036H133.927V21.888H137.191V16.272H143.747V21.888H147.607V27.036H143.747V37.692C143.747 38.46 143.915 39 144.251 39.312C144.611 39.624 145.183 39.78 145.967 39.78H147.607V39.84Z" fill="#FFC107"/>
  <path d="M150.037 21.888H156.593V44.88H150.037V21.888ZM153.315 19.308C152.143 19.308 151.211 18.972 150.519 18.3C149.827 17.628 149.481 16.8 149.481 15.816C149.481 14.832 149.827 14.004 150.519 13.332C151.211 12.66 152.143 12.324 153.315 12.324C154.487 12.324 155.419 12.66 156.111 13.332C156.803 14.004 157.149 14.832 157.149 15.816C157.149 16.8 156.803 17.628 156.111 18.3C155.419 18.972 154.487 19.308 153.315 19.308Z" fill="#FFC107"/>
  <path d="M169.927 21.384C172.231 21.384 174.079 22.152 175.471 23.688C176.863 25.2 177.559 27.348 177.559 30.132V44.88H171.003V31.044C171.003 29.58 170.667 28.452 169.999 27.66C169.331 26.868 168.399 26.472 167.203 26.472C165.911 26.472 164.883 26.892 164.119 27.732C163.355 28.548 162.975 29.784 162.975 31.44V44.88H156.419V21.888H162.755V24.744C163.399 23.736 164.287 22.944 165.419 22.368C166.575 21.792 168.123 21.42 169.927 21.384Z" fill="#FFC107"/>
  <path d="M188.264 44.88C186.208 44.88 184.44 44.568 182.96 43.944C181.48 43.32 180.352 42.432 179.584 41.28C178.816 40.128 178.408 38.772 178.36 37.212H184.608C184.68 38.028 185.024 38.688 185.64 39.192C186.256 39.696 187.064 39.948 188.072 39.948C189.032 39.948 189.752 39.78 190.232 39.444C190.736 39.108 190.988 38.664 190.988 38.112C190.988 37.464 190.664 36.996 190.016 36.708C189.368 36.396 188.336 36.06 186.92 35.7C185.384 35.364 184.104 35.016 183.08 34.656C182.08 34.296 181.192 33.732 180.424 32.964C179.68 32.172 179.296 31.092 179.272 29.724C179.248 28.5 179.56 27.42 180.208 26.484C180.88 25.548 181.84 24.816 183.08 24.288C184.344 23.76 185.824 23.496 187.52 23.496C190.04 23.496 192.016 24.096 193.456 25.296C194.896 26.496 195.688 28.14 195.832 30.228H189.944C189.848 29.412 189.536 28.776 189.008 28.32C188.48 27.84 187.76 27.6 186.848 27.6C186.04 27.6 185.416 27.756 184.976 28.068C184.536 28.356 184.32 28.776 184.32 29.328C184.32 30 184.644 30.504 185.294 30.84C185.944 31.176 186.96 31.5 188.336 31.812C189.824 32.172 191.064 32.532 192.056 32.892C193.048 33.252 193.916 33.828 194.66 34.62C195.428 35.388 195.824 36.456 195.848 37.824C195.848 39.072 195.512 40.164 194.84 41.1C194.168 42.036 193.184 42.768 191.896 43.296C190.632 44.352 189.144 44.88 188.264 44.88Z" fill="#FFC107"/>
  <path filter="url(#filter0_d_1_1)" d="M9 59.5L191.5 59.5" stroke="#FFC107" stroke-width="2"/>
  <defs>
    <filter id="filter0_d_1_1" x="5" y="57.5" width="190.5" height="8" filterUnits="userSpaceOnUse" color-interpolation-filters="sRGB">
      <feFlood flood-opacity="0" result="BackgroundImageFix"/>
      <feColorMatrix in="SourceAlpha" type="matrix" values="0 0 0 0 0 0 0 0 0 0 0 0 0 0 0 0 0 0 127 0" result="hardAlpha"/>
      <feOffset dy="2"/>
      <feGaussianBlur stdDeviation="2"/>
      <feComposite in2="hardAlpha" operator="out"/>
      <feColorMatrix type="matrix" values="0 0 0 0 1 0 0 0 0 0.756863 0 0 0 0 0.027451 0 0 0 0.25 0"/>
      <feBlend mode="normal" in2="BackgroundImageFix" result="effect1_dropShadow_1_1"/>
      <feBlend mode="normal" in="SourceGraphic" in2="effect1_dropShadow_1_1" result="shape"/>
    </filter>
  </defs>
</svg>